# xmcd
#
# Track frame offsets:
#	150
#	13320
#	32812
#	48122
#	59670
#	81177
#	93982
#	111188
#	128120
#	145324
#	160549
#	179761
#	195808
#	211386
#	226291
#	243201
#	259392
#	274517
#	285221
#	299068
#
# Disc length: 4173 seconds
#
# Revision: 1
# Processed by: cddbd v1.5.2PL0 Copyright (c) Steve Scherf et al.
# Submitted via: audiograbber 1.83.01
#
DISCID=21104b14
DTITLE=Kenny Rogers - Golden Hits
DYEAR=1900
DGENRE=Country
TTITLE0=Ruby Don´t Take Your Love To Town
TTITLE1=She Beieves In Me
TTITLE2=For The Good Times
TTITLE3=Me And Bobby Mcgee
TTITLE4=Have I Told You Lately That I Love You
TTITLE5=As Time Goes By
TTITLE6=Endless Love
TTITLE7=You Decorated My Life
TTITLE8=Something´s Burning
TTITLE9=Unforgettable
TTITLE10=I Only Have Eyes For You
TTITLE11=Evergreen
TTITLE12=When I Fall In Love
TTITLE13=Crazy
TTITLE14=When A Man Loves A Woman
TTITLE15=The Wind Beneath My Wings
TTITLE16=I Can´t Help Falling In Love
TTITLE17=We All Got To Help Eachother
TTITLE18=Love Me Tender
TTITLE19=You Are So Beautiful
EXTD=
EXTT0=
EXTT1=
EXTT2=
EXTT3=
EXTT4=
EXTT5=
EXTT6=
EXTT7=
EXTT8=
EXTT9=
EXTT10=
EXTT11=
EXTT12=
EXTT13=
EXTT14=
EXTT15=
EXTT16=
EXTT17=
EXTT18=
EXTT19=
PLAYORDER=
